<?xml version="1.0" encoding="UTF-8" standalone="no"?>
<svg
   xmlns:dc="http://purl.org/dc/elements/1.1/"
   xmlns:cc="http://creativecommons.org/ns#"
   xmlns:rdf="http://www.w3.org/1999/02/22-rdf-syntax-ns#"
   xmlns:svg="http://www.w3.org/2000/svg"
   xmlns="http://www.w3.org/2000/svg"
   width="125"
   height="29"
   viewBox="0 0 33.072916 7.6729169"
   version="1.1"
   id="svg8">
  <defs
     id="defs2" />
  <metadata
     id="metadata5">
    <rdf:RDF>
      <cc:Work
         rdf:about="">
        <dc:format>image/svg+xml</dc:format>
        <dc:type
           rdf:resource="http://purl.org/dc/dcmitype/StillImage" />
        <dc:title></dc:title>
      </cc:Work>
    </rdf:RDF>
  </metadata>
  <g
     id="layer1">
    <path
       id="rect849"
       style="fill:#ffffff;stroke-width:0.531708;stroke-miterlimit:2"
       d="m 25.058644,0.52916667 -0.416438,0.010075 -0.416538,0.00997 -0.0099,0.46960773 -0.0099,0.4697114 h 0.426407 0.426407 l -3e-5,-0.4796851 z M 0.52916667,0.52927097 V 3.0826199 5.6358653 H 2.1065379 3.683909 V 5.2459104 4.8560592 H 2.5498717 1.4158343 l -0.00914,-2.1534246 -0.00914,-2.15342463 -0.43419523,-0.00997 z M 18.313613,1.871215 c -0.07828,-1.33e-5 -0.157774,0.00463 -0.238128,0.014228 -0.338757,0.040459 -0.588048,0.1404012 -0.85572,0.3431187 -0.605587,0.4586317 -0.871624,1.2835789 -0.669205,2.0750182 0.0953,0.3726581 0.223205,0.5979904 0.496607,0.8751405 0.242437,0.2457594 0.421589,0.3566958 0.744809,0.4611955 0.259575,0.083921 0.86908,0.08917 1.136739,0.00976 0.413921,-0.1228118 0.731544,-0.3458971 0.925194,-0.6498907 0.05522,-0.086675 0.100321,-0.1710266 0.100321,-0.187345 0,-0.016319 -0.153249,-0.1007914 -0.340627,-0.1877593 L 19.272871,4.466518 19.200591,4.558424 c -0.239823,0.3048916 -0.413865,0.3863789 -0.823734,0.3855968 -0.264678,-4.013e-4 -0.34545,-0.01454 -0.47428,-0.082768 C 17.69134,4.749388 17.521884,4.5565649 17.437226,4.3318276 17.317373,4.013662 17.198864,4.0407373 18.71198,4.0407373 h 1.34537 L 20.08144,3.9122757 C 20.12036,3.7048016 20.07364,3.2595069 19.98943,3.036201 19.716472,2.3123244 19.070307,1.871345 18.313609,1.8712164 Z m -4.330838,1.037e-4 c -0.866063,0 -1.581617,0.5480342 -1.772401,1.3574177 -0.146007,0.6194125 0.02586,1.2505989 0.457873,1.6812204 0.385807,0.3845737 0.877911,0.5711878 1.419415,0.5382526 0.360324,-0.021915 0.609892,-0.1005476 0.814077,-0.2564048 0.08873,-0.067726 0.169145,-0.1230617 0.178725,-0.1230617 0.03115,0 0.01835,0.3362204 -0.02088,0.5484295 -0.06046,0.3270302 -0.200165,0.5012693 -0.519351,0.647398 -0.223322,0.1022412 -0.661989,0.1195567 -0.866106,0.034271 C 13.503496,6.2275464 13.304501,6.0452785 13.196939,5.8617388 L 13.106489,5.7075221 12.764097,5.889259 c -0.188349,0.099954 -0.350042,0.1884534 -0.359319,0.1966911 -0.04399,0.039045 0.207085,0.4216523 0.381023,0.5806229 0.463411,0.4235297 1.107837,0.571897 1.814667,0.4178903 h 1.04e-4 c 0.263435,-0.057397 0.591471,-0.2357393 0.816258,-0.4438527 0.2742,-0.2538605 0.44769,-0.5930621 0.495778,-0.9693318 0.01869,-0.1462197 0.03439,-1.04348 0.035,-1.9939116 l 10e-4,-1.7280567 H 15.540999 15.133285 V 2.1509863 2.352558 L 15.035875,2.261586 C 14.75773,2.0020017 14.405196,1.8713187 13.98274,1.8713187 Z M 5.9383793,1.8714224 C 5.6683064,1.8747403 5.3976859,1.9270173 5.1583654,2.0293778 4.8145528,2.1764292 4.4846062,2.4580885 4.297037,2.7646325 4.1044054,3.0794504 4.0561061,3.2853008 4.0561061,3.7926395 c 0,0.4157142 0.010835,0.5064589 0.082249,0.6912228 0.220985,0.5717365 0.6304524,0.9519892 1.2470257,1.158026 0.2765365,0.09241 0.9941027,0.071426 1.2761036,-0.037282 C 7.1052237,5.4335464 7.5482301,5.0263407 7.7287454,4.623436 8.1500223,3.683167 7.7961945,2.5922877 6.9096843,2.0984379 6.6319738,1.9437326 6.2856161,1.8671553 5.9383793,1.8714224 Z m 21.5687247,1.041e-4 c -0.516929,9.855e-4 -1.040588,0.1980554 -1.405291,0.5908002 -0.230628,0.2483596 -0.353655,0.4768587 -0.441258,0.8193728 -0.124637,0.4873327 -0.06353,1.0219472 0.168342,1.4719642 0.134134,0.2603249 0.511107,0.6333687 0.75405,0.7462625 0.401325,0.1864918 0.450466,0.1974712 0.908995,0.2027142 0.267787,0.00305 0.417814,-0.013841 0.587478,-0.066256 0.412821,-0.1275079 0.811356,-0.4453173 0.98792,-0.7878031 0.03728,-0.072334 0.06781,-0.1468685 0.06781,-0.1656399 0,-0.031979 -0.652593,-0.3941091 -0.710227,-0.3941091 -0.0146,0 -0.03584,0.037279 -0.04725,0.082768 -0.03659,0.1457752 -0.292265,0.3989535 -0.487885,0.4831083 -0.148961,0.06408 -0.232998,0.076653 -0.435545,0.065425 C 27.165253,4.9041166 27.007668,4.8379576 26.81484,4.651578 26.377791,4.2291359 26.371194,3.3704129 26.80165,2.9457453 27.014818,2.73545 27.167493,2.6769399 27.504505,2.6764634 c 0.265266,-4.013e-4 0.321173,0.01121 0.467113,0.096995 0.180884,0.1063324 0.374304,0.31718 0.406467,0.443126 0.0112,0.043866 0.03428,0.079756 0.0514,0.079756 0.07697,0 0.705657,-0.3400177 0.705657,-0.3816468 0,-0.078078 -0.128443,-0.3012409 -0.263362,-0.4576649 -0.337571,-0.3913914 -0.847747,-0.586496 -1.364676,-0.5855022 z m 3.644705,0.00187 c -0.661695,0 -1.235223,0.2996793 -1.498237,0.7829221 l -0.09626,0.1769599 0.363994,0.1826716 c 0.335165,0.168194 0.366797,0.1775968 0.400337,0.1191151 0.301054,-0.524939 0.977912,-0.6736697 1.339142,-0.2943099 0.111806,0.117416 0.132927,0.163989 0.132927,0.2935832 0,0.1501198 -0.0034,0.1546933 -0.132927,0.1782055 -0.473028,0.085871 -1.298717,0.2873207 -1.487645,0.3629543 -0.266914,0.1068535 -0.562001,0.3597887 -0.652694,0.5594379 -0.09291,0.20452 -0.08939,0.6081643 0.0071,0.8133495 0.132955,0.2828468 0.460483,0.5423433 0.790919,0.6266286 0.06078,0.015493 0.285995,0.024408 0.50045,0.01973 0.314908,-0.00687 0.42346,-0.02378 0.564319,-0.087545 0.09592,-0.043424 0.243546,-0.1355206 0.327957,-0.2046876 L 31.864576,5.2766495 V 5.4563072 5.635863 H 32.2545 32.644456 V 4.2725281 c 0,-1.5562895 -0.0064,-1.5978491 -0.29971,-1.9240211 C 32.060747,2.032632 31.660909,1.8733949 31.151826,1.8733949 Z M 10.276384,1.8738094 C 9.9042657,1.8732073 9.6457827,1.9607774 9.4123547,2.1662499 L 9.2492077,2.3098747 V 2.1284505 1.9470251 l -0.398783,0.010075 -0.398782,0.00997 -0.00925,1.8343986 -0.00913,1.8343988 h 0.423499 0.423602 l 0.011,-1.1963472 c 0.01187,-1.2907775 0.02011,-1.3502162 0.216527,-1.5638706 0.262056,-0.2850591 0.8511063,-0.2850591 1.1131633,0 0.194313,0.211369 0.20309,0.2746244 0.216526,1.5638706 l 0.01246,1.1963472 h 0.406259 0.406363 L 11.652282,4.2445911 11.641892,2.8532145 11.547492,2.652058 C 11.309144,2.1435959 10.870035,1.8747135 10.276384,1.8738113 Z m 10.357438,0.0755 c -0.437616,0 -0.439597,4.015e-4 -0.421736,0.079756 0.0099,0.043865 0.219693,0.5902334 0.466285,1.2141049 0.449773,1.1379106 0.84682,2.1471388 0.907646,2.3071222 0.03164,0.083233 0.04326,0.085572 0.414983,0.085572 h 0.382375 l 0.148088,-0.3810238 c 0.08147,-0.2095824 0.398012,-1.0111343 0.703374,-1.7812278 0.305364,-0.7700933 0.56337,-1.4280826 0.573355,-1.4622018 0.0166,-0.056743 -0.01973,-0.062102 -0.425993,-0.062102 h -0.444163 l -0.08973,0.2392695 c -0.342857,0.9140673 -0.802655,2.1785844 -0.802655,2.2074259 0,0.019071 -0.01365,0.034687 -0.03033,0.034687 -0.02704,0 -0.200748,-0.4536584 -0.770252,-2.0116702 L 21.073408,1.9493104 Z m 3.574086,0 v 1.8433297 1.8432258 h 0.425369 0.425367 V 3.7926395 1.9493099 h -0.425367 z m -5.930434,0.6385702 c 0.273055,-0.00661 0.54697,0.1025348 0.714069,0.3051105 0.102301,0.1240191 0.182145,0.3119243 0.182672,0.4299367 1.42e-4,0.034276 -0.20129,0.044344 -0.889784,0.044344 h -0.890094 l 0.02191,-0.08713 c 0.07034,-0.2802669 0.241712,-0.4893372 0.499517,-0.6093895 0.113627,-0.052915 0.23759,-0.079867 0.361708,-0.082873 z M 5.9714032,2.6570448 C 6.3515837,2.6626848 6.7149998,2.8790999 6.89878,3.2533487 6.986716,3.432421 6.998202,3.4949397 6.997853,3.7926395 6.9974514,4.0703661 6.9827369,4.1621167 6.9133194,4.3164567 6.8098016,4.5466015 6.5448949,4.7932726 6.3182609,4.870494 6.1163046,4.9393073 5.7706886,4.9397359 5.5841485,4.8713169 5.36204,4.7899196 5.1536438,4.5940849 5.0336417,4.3539382 4.936694,4.1599279 4.9245997,4.1011656 4.9245997,3.8236821 c 0,-0.5165304 0.1652696,-0.8385169 0.5332676,-1.0388072 0.1644474,-0.089504 0.3407267,-0.130403 0.5135359,-0.1278383 z m 8.0552988,0.00157 c 0.122591,-0.00361 0.251666,0.01272 0.384036,0.052029 0.46205,0.1372144 0.741925,0.631213 0.647399,1.1425532 -0.04671,0.2526864 -0.102665,0.363223 -0.267724,0.5282826 -0.226817,0.2268124 -0.61443,0.3329602 -0.956352,0.2619063 -0.357469,-0.074286 -0.642,-0.3278612 -0.737851,-0.6575781 -0.205363,-0.7064284 0.268507,-1.3076912 0.930492,-1.3271974 z m 17.767936,1.2761035 c 0.04083,-6.023e-4 -0.02794,0.5207708 -0.08246,0.6251741 -0.0865,0.1656505 -0.267004,0.3315955 -0.442402,0.4067794 -0.217376,0.09318 -0.588348,0.090583 -0.745431,-0.00519 -0.138644,-0.084528 -0.230445,-0.2775377 -0.19773,-0.4159177 0.0278,-0.1175598 0.138204,-0.2451698 0.272397,-0.3149753 0.07658,-0.039835 1.106133,-0.2946032 1.195621,-0.2958679 z" />
  </g>
</svg>
